<?xml version="1.0" encoding="utf-8"?>
<!-- Generator: Adobe Illustrator 27.2.0, SVG Export Plug-In . SVG Version: 6.00 Build 0)  -->
<svg version="1.1" id="Capa_1" xmlns="http://www.w3.org/2000/svg" xmlns:xlink="http://www.w3.org/1999/xlink" x="0px" y="0px"
	 viewBox="0 0 1080 732.5" style="enable-background:new 0 0 1080 732.5;" xml:space="preserve">
<style type="text/css">
	.st0{fill:#FFFFFF;}
	.st1{fill:none;stroke:#5A62FF;stroke-width:21.7174;stroke-miterlimit:10;}
	.st2{fill:#F2F2F2;}
	.st3{fill:#5A62FF;}
	.st4{fill:#CCCCCC;}
	.st5{fill:#6C63FF;}
	.st6{fill:#E6E6E6;}
	.st7{fill:#E44D26;}
	.st8{fill:#F16529;}
	.st9{fill:#EBEBEB;}
	.st10{fill:#2196F3;}
	.st11{fill:#FAFAFA;}
	.st12{fill:#CF649A;}
	.st13{fill:#F7DF1E;}
	.st14{fill:#E76F52;}
	.st15{fill-rule:evenodd;clip-rule:evenodd;fill:#FFFFFF;}
	.st16{fill:#6181B6;}
	.st17{fill:url(#SVGID_1_);}
	.st18{fill:url(#SVGID_00000041254406685529735810000004989351497654878374_);}
	.st19{fill:#7B55B4;}
	.st20{fill-rule:evenodd;clip-rule:evenodd;fill:#FF2D20;}
	.st21{fill:#61DAFB;}
	.st22{fill:#E23237;}
	.st23{fill:#B52E31;}
</style>
<path class="st2" d="M1034.3,693.6H46.1c-14,0-25.4-11.4-25.4-25.4V58.8c0-10.3,8.4-18.6,18.6-18.6h1001.5c10.5,0,19,8.5,19,19v609
	C1059.7,682.2,1048.3,693.6,1034.3,693.6z"/>
<path class="st0" d="M1002.3,661.5h-921c-13.5,0-24.5-10.3-24.5-22.9V107.9c0-9.4,8.1-17,18.1-17h933.4c10.2,0,18.4,7.8,18.4,17.3
	v530.4C1026.8,651.2,1015.8,661.5,1002.3,661.5z"/>
<path class="st3" d="M1059.4,62H20.3V49c0-14.1,11.4-25.5,25.5-25.5h988c14.1,0,25.5,11.4,25.5,25.5V62z"/>
<circle class="st0" cx="66.7" cy="42.8" r="6.6"/>
<circle class="st0" cx="91.7" cy="42.8" r="6.6"/>
<circle class="st0" cx="116.8" cy="42.8" r="6.6"/>
<path class="st4" d="M520,206.9H339.9c-5.6,0-10.1-4.5-10.1-10.1c0-5.6,4.5-10.1,10.1-10.1H520c5.6,0,10.1,4.5,10.1,10.1
	C530.1,202.4,525.6,206.9,520,206.9C520,206.9,520,206.9,520,206.9z"/>
<path class="st4" d="M743.8,206.9H563.7c-5.6,0-10.1-4.5-10.1-10.1c0-5.6,4.5-10.1,10.1-10.1h180.1c5.6,0,10.1,4.5,10.1,10.1
	C754,202.4,749.4,206.9,743.8,206.9C743.8,206.9,743.8,206.9,743.8,206.9z"/>
<path class="st4" d="M743.8,245.3H430.5c-5.6,0-10.1-4.5-10.1-10.1c0-5.6,4.5-10.1,10.1-10.1l0,0h313.4c5.6,0,10.1,4.5,10.1,10.1
	C753.9,240.8,749.4,245.3,743.8,245.3z"/>
<path class="st4" d="M520,168H339.9c-5.6,0-10.1-4.5-10.1-10.1c0-5.6,4.5-10.1,10.1-10.1H520c5.6,0,10.1,4.5,10.1,10.1
	S525.6,168,520,168C520,168,520,168,520,168z"/>
<path class="st4" d="M619.1,168.5H568c-5.6,0-10.1-4.5-10.1-10.1c0-5.6,4.5-10.1,10.1-10.1h51.2c5.6,0,10.1,4.5,10.1,10.1
	C629.2,164,624.7,168.5,619.1,168.5C619.1,168.5,619.1,168.5,619.1,168.5z"/>
<path class="st4" d="M391,245.3h-51.2c-5.6,0-10.1-4.5-10.1-10.1c0-5.6,4.5-10.1,10.1-10.1H391c5.6,0,10.1,4.5,10.1,10.1
	C401.2,240.7,396.6,245.3,391,245.3C391,245.3,391,245.3,391,245.3z"/>
<path class="st4" d="M520,566.2H339.9c-5.6,0-10.1-4.5-10.1-10.1c0-5.6,4.5-10.1,10.1-10.1H520c5.6,0,10.1,4.5,10.1,10.1
	C530.1,561.7,525.6,566.2,520,566.2L520,566.2z"/>
<path class="st4" d="M743.8,566.2H563.7c-5.6,0-10.1-4.5-10.1-10.1c0-5.6,4.5-10.1,10.1-10.1l0,0h180.1c5.6,0,10.1,4.5,10.1,10.1
	C753.9,561.7,749.4,566.2,743.8,566.2z"/>
<path class="st4" d="M743.8,604.6H430.5c-5.6,0-10.1-4.5-10.1-10.1c0-5.6,4.5-10.1,10.1-10.1l0,0h313.4c5.6,0,10.1,4.5,10.1,10.1
	C754,600,749.4,604.6,743.8,604.6C743.8,604.6,743.8,604.6,743.8,604.6z"/>
<path class="st4" d="M520,527.3H339.9c-5.6,0-10.1-4.5-10.1-10.1c0-5.6,4.5-10.1,10.1-10.1l0,0H520c5.6,0,10.1,4.5,10.1,10.1
	C530.1,522.8,525.6,527.3,520,527.3z"/>
<path class="st4" d="M619.1,527.8H568c-5.6,0-10.1-4.5-10.1-10.1c0-5.6,4.5-10.1,10.1-10.1h51.2c5.6,0,10.1,4.5,10.1,10.1
	C629.2,523.3,624.7,527.8,619.1,527.8z"/>
<path class="st4" d="M391,604.6h-51.2c-5.6,0-10.1-4.5-10.1-10.1c0-5.6,4.5-10.1,10.1-10.1l0,0H391c5.6,0,10.1,4.5,10.1,10.1
	C401.2,600,396.6,604.6,391,604.6C391,604.6,391,604.6,391,604.6z"/>
<path class="st3" d="M472.9,457.5c-3.8,0-7.5-1.5-10.2-4.2L395,386.5c-5.5-5.5-5.6-14.4-0.1-20c0,0,0.1-0.1,0.1-0.1l67.4-66.6
	c5.8-5.7,15.2-5.7,21,0.1l0,0c5.8,5.8,5.8,15.3,0,21.1l-50.1,50.1c-3.3,3.3-3.3,8.5,0,11.8l49.8,49.8c5.7,5.7,5.7,14.9,0,20.5
	C480.5,456,476.8,457.5,472.9,457.5L472.9,457.5z"/>
<path class="st3" d="M580.8,457.5c-8,0-14.5-6.5-14.5-14.5c0-3.9,1.5-7.6,4.3-10.3l49.8-49.8c3.3-3.3,3.3-8.5,0-11.8L570.3,321
	c-5.8-5.8-5.8-15.3,0-21.1c0,0,0,0,0,0l0,0c5.8-5.8,15.2-5.8,21-0.1l67.4,66.6c5.5,5.5,5.6,14.4,0.1,20c0,0-0.1,0.1-0.1,0.1
	l-67.7,66.9C588.3,456,584.7,457.5,580.8,457.5z"/>
</svg>
