<?xml version="1.0" encoding="utf-8"?>
<!-- Generator: Adobe Illustrator 27.2.0, SVG Export Plug-In . SVG Version: 6.00 Build 0)  -->
<svg version="1.1" id="Capa_1" xmlns="http://www.w3.org/2000/svg" xmlns:xlink="http://www.w3.org/1999/xlink" x="0px" y="0px"
	 viewBox="0 0 1080 1044.8" style="enable-background:new 0 0 1080 1044.8;" xml:space="preserve">
<style type="text/css">
	.st0{fill:#FFFFFF;}
	.st1{fill:none;stroke:#5A62FF;stroke-width:21.7174;stroke-miterlimit:10;}
	.st2{fill:#F2F2F2;}
	.st3{fill:#5A62FF;}
	.st4{fill:#CCCCCC;}
	.st5{fill:#6C63FF;}
	.st6{fill:#E6E6E6;}
	.st7{fill:#E44D26;}
	.st8{fill:#F16529;}
	.st9{fill:#EBEBEB;}
	.st10{fill:#2196F3;}
	.st11{fill:#FAFAFA;}
	.st12{fill:#CF649A;}
	.st13{fill:#F7DF1E;}
	.st14{fill:#E76F52;}
	.st15{fill-rule:evenodd;clip-rule:evenodd;fill:#FFFFFF;}
	.st16{fill:#6181B6;}
	.st17{fill:url(#SVGID_1_);}
	.st18{fill:url(#SVGID_00000177472049966837827330000017286759180735553679_);}
	.st19{fill:#7B55B4;}
	.st20{fill-rule:evenodd;clip-rule:evenodd;fill:#FF2D20;}
	.st21{fill:#61DAFB;}
	.st22{fill:#E23237;}
	.st23{fill:#B52E31;}
</style>
<g>
	<path class="st0" d="M419.4,326.8c8,8,14.1,17.2,18.5,27.8c4.4,10.6,6.6,21.6,6.6,33.2v344.1h-33.8c-28.8,0-52.2-23.4-52.2-52.2
		v-72.1h-85.4v124.2h-32c-29.8,0-54-24.2-54-54V387.8c0-15.1-2-30-6-44.5c-4-14.5-9.8-28.4-17.3-41.5h23.3h171.4
		c11.5,0,22.6,2.2,33.2,6.6C402.2,312.7,411.5,318.9,419.4,326.8z M358.5,387.8h-85.4v133.8h85.4V387.8z"/>
	<path class="st0" d="M892.6,326.8c8,8,14.1,17.2,18.5,27.8c4.4,10.6,6.6,21.6,6.6,33.2v329.6c0,8-6.5,14.5-14.5,14.5h-25
		c-25.7,0-46.5-20.8-46.5-46.5V402.3c0-8-6.5-14.5-14.5-14.5h-57c-8,0-14.5,6.5-14.5,14.5v315.1c0,8-6.5,14.5-14.5,14.5h-71.5V402.3
		c0-8-6.5-14.5-14.5-14.5h-56.4c-8,0-14.5,6.5-14.5,14.5v315.1c0,8-6.5,14.5-14.5,14.5h-33.1c-21.2,0-38.4-17.2-38.4-38.4V387.8
		c0-15.1-2-30-6-44.5c-2-7.3-4.5-14.5-7.4-21.4c-4-9.6,3-20.1,13.4-20.1h0h343.5c11.5,0,22.6,2.2,33.2,6.6
		C875.4,312.7,884.7,318.9,892.6,326.8z"/>
	<path class="st1" d="M976,1021.3H105.5c-43.4,0-78.5-35.2-78.5-78.5V100.3c0-43.4,35.2-78.5,78.5-78.5H976
		c43.4,0,78.5,35.2,78.5,78.5v842.4C1054.5,986.1,1019.4,1021.3,976,1021.3z"/>
</g>
</svg>
