<?xml version="1.0" encoding="utf-8"?>
<!-- Generator: Adobe Illustrator 27.2.0, SVG Export Plug-In . SVG Version: 6.00 Build 0)  -->
<svg version="1.1" id="Capa_1" xmlns="http://www.w3.org/2000/svg" xmlns:xlink="http://www.w3.org/1999/xlink" x="0px" y="0px"
	 viewBox="0 0 1080 764.2" style="enable-background:new 0 0 1080 764.2;" xml:space="preserve">
<style type="text/css">
	.st0{fill:#FFFFFF;}
	.st1{fill:none;stroke:#5A62FF;stroke-width:21.7174;stroke-miterlimit:10;}
	.st2{fill:#F2F2F2;}
	.st3{fill:#5A62FF;}
	.st4{fill:#CCCCCC;}
	.st5{fill:#6C63FF;}
	.st6{fill:#E6E6E6;}
	.st7{fill:#E44D26;}
	.st8{fill:#F16529;}
	.st9{fill:#EBEBEB;}
	.st10{fill:#2196F3;}
	.st11{fill:#FAFAFA;}
	.st12{fill:#CF649A;}
	.st13{fill:#F7DF1E;}
	.st14{fill:#E76F52;}
	.st15{fill-rule:evenodd;clip-rule:evenodd;fill:#FFFFFF;}
	.st16{fill:#6181B6;}
	.st17{fill:url(#SVGID_1_);}
	.st18{fill:url(#SVGID_00000181780584597815518420000014272766661563761546_);}
	.st19{fill:#7B55B4;}
	.st20{fill-rule:evenodd;clip-rule:evenodd;fill:#FF2D20;}
	.st21{fill:#61DAFB;}
	.st22{fill:#E23237;}
	.st23{fill:#B52E31;}
</style>
<path class="st2" d="M39.9,62.1v643.5c0,17.1,13.9,30.9,30.9,30.9h953.6c17.1,0,30.9-13.9,30.9-30.9V62.1
	c0-17.1-13.9-30.9-30.9-30.9H70.8C53.7,31.2,39.9,45,39.9,62.1z"/>
<path class="st5" d="M62.2,70.1v627.6c0,9.1,7.4,16.5,16.5,16.5h937.7c9.1,0,16.5-7.4,16.5-16.5V70.1c0-9.1-7.4-16.5-16.5-16.6H78.8
	C69.6,53.6,62.3,61,62.2,70.1z"/>
<path class="st6" d="M125.9,140h877.4c1.9,0,3.5-1.6,3.4-3.6c0-1.9-1.5-3.4-3.4-3.4H125.9c-1.9,0-3.5,1.6-3.4,3.6
	C122.5,138.4,124,140,125.9,140z"/>
<path class="st6" d="M162.2,221.1h18c5.5,0,9.9,4.4,9.9,9.9v0c0,5.5-4.4,9.9-9.9,9.9h-18c-5.5,0-9.9-4.4-9.9-9.9v0
	C152.3,225.5,156.7,221.1,162.2,221.1z"/>
<path class="st6" d="M368.4,221.1h18c5.5,0,9.9,4.4,9.9,9.9v0c0,5.5-4.4,9.9-9.9,9.9h-18c-5.5,0-9.9-4.4-9.9-9.9v0
	C358.5,225.5,362.9,221.1,368.4,221.1z"/>
<path class="st6" d="M426.8,221.1h18c5.5,0,9.9,4.4,9.9,9.9v0c0,5.5-4.4,9.9-9.9,9.9h-18c-5.5,0-9.9-4.4-9.9-9.9v0
	C416.9,225.5,421.3,221.1,426.8,221.1z"/>
<path class="st6" d="M218.3,219.4h112c5.5,0,9.9,4.4,9.9,9.9v0c0,5.5-4.4,9.9-9.9,9.9h-112c-5.5,0-9.9-4.4-9.9-9.9v0
	C208.4,223.9,212.8,219.4,218.3,219.4z"/>
<path class="st6" d="M493.2,219.4h112c5.5,0,9.9,4.4,9.9,9.9v0c0,5.5-4.4,9.9-9.9,9.9h-112c-5.5,0-9.9-4.4-9.9-9.9v0
	C483.3,223.9,487.7,219.4,493.2,219.4z"/>
<path class="st6" d="M217.2,265.8h18c5.5,0,9.9,4.4,9.9,9.9v0c0,5.5-4.4,9.9-9.9,9.9h-18c-5.5,0-9.9-4.4-9.9-9.9v0
	C207.3,270.2,211.7,265.8,217.2,265.8z"/>
<path class="st6" d="M423.3,265.8h18c5.5,0,9.9,4.4,9.9,9.9v0c0,5.5-4.4,9.9-9.9,9.9h-18c-5.5,0-9.9-4.4-9.9-9.9v0
	C413.4,270.2,417.9,265.8,423.3,265.8z"/>
<path class="st6" d="M481.8,265.8h18c5.5,0,9.9,4.4,9.9,9.9v0c0,5.5-4.4,9.9-9.9,9.9h-18c-5.5,0-9.9-4.4-9.9-9.9v0
	C471.9,270.2,476.3,265.8,481.8,265.8z"/>
<path class="st6" d="M273.2,264.1h112c5.5,0,9.9,4.4,9.9,9.9v0c0,5.5-4.4,9.9-9.9,9.9h-112c-5.5,0-9.9-4.4-9.9-9.9v0
	C263.3,268.5,267.8,264.1,273.2,264.1z"/>
<path class="st6" d="M548.1,264.1h112c5.5,0,9.9,4.4,9.9,9.9v0c0,5.5-4.4,9.9-9.9,9.9h-112c-5.5,0-9.9-4.4-9.9-9.9v0
	C538.3,268.5,542.7,264.1,548.1,264.1z"/>
<path class="st6" d="M272.1,310.4h18c5.5,0,9.9,4.4,9.9,9.9v0c0,5.5-4.4,9.9-9.9,9.9h-18c-5.5,0-9.9-4.4-9.9-9.9v0
	C262.2,314.9,266.7,310.4,272.1,310.4z"/>
<path class="st6" d="M478.3,310.4h18c5.5,0,9.9,4.4,9.9,9.9v0c0,5.5-4.4,9.9-9.9,9.9h-18c-5.5,0-9.9-4.4-9.9-9.9v0
	C468.4,314.9,472.9,310.4,478.3,310.4z"/>
<path class="st6" d="M536.7,310.4h18c5.5,0,9.9,4.4,9.9,9.9v0c0,5.5-4.4,9.9-9.9,9.9h-18c-5.5,0-9.9-4.4-9.9-9.9v0
	C526.8,314.9,531.3,310.4,536.7,310.4z"/>
<path class="st6" d="M328.2,308.8h112c5.5,0,9.9,4.4,9.9,9.9v0c0,5.5-4.4,9.9-9.9,9.9h-112c-5.5,0-9.9-4.4-9.9-9.9v0
	C318.3,313.2,322.8,308.8,328.2,308.8z"/>
<path class="st6" d="M327.1,355.1h18c5.5,0,9.9,4.4,9.9,9.9v0c0,5.5-4.4,9.9-9.9,9.9h-18c-5.5,0-9.9-4.4-9.9-9.9v0
	C317.2,359.5,321.7,355.1,327.1,355.1z"/>
<path class="st6" d="M533.3,355.1h18c5.5,0,9.9,4.4,9.9,9.9v0c0,5.5-4.4,9.9-9.9,9.9h-18c-5.5,0-9.9-4.4-9.9-9.9v0
	C523.4,359.5,527.8,355.1,533.3,355.1z"/>
<path class="st6" d="M383.2,353.5h112c5.5,0,9.9,4.4,9.9,9.9v0c0,5.5-4.4,9.9-9.9,9.9h-112c-5.5,0-9.9-4.4-9.9-9.9v0
	C373.3,357.9,377.7,353.5,383.2,353.5z"/>
<path class="st6" d="M368.4,532.7h18c5.5,0,9.9,4.4,9.9,9.9v0c0,5.5-4.4,9.9-9.9,9.9h-18c-5.5,0-9.9-4.4-9.9-9.9v0
	C358.5,537.2,362.9,532.7,368.4,532.7z"/>
<path class="st6" d="M426.8,532.7h18c5.5,0,9.9,4.4,9.9,9.9v0c0,5.5-4.4,9.9-9.9,9.9h-18c-5.5,0-9.9-4.4-9.9-9.9v0
	C416.9,537.2,421.3,532.7,426.8,532.7z"/>
<path class="st6" d="M493.2,534.4h112c5.5,0,9.9,4.4,9.9,9.9v0c0,5.5-4.4,9.9-9.9,9.9h-112c-5.5,0-9.9-4.4-9.9-9.9v0
	C483.3,538.8,487.7,534.4,493.2,534.4z"/>
<path class="st6" d="M162.2,532.7h18c5.5,0,9.9,4.4,9.9,9.9v0c0,5.5-4.4,9.9-9.9,9.9h-18c-5.5,0-9.9-4.4-9.9-9.9v0
	C152.3,537.2,156.7,532.7,162.2,532.7z"/>
<path class="st6" d="M218.3,534.4h112c5.5,0,9.9,4.4,9.9,9.9v0c0,5.5-4.4,9.9-9.9,9.9h-112c-5.5,0-9.9-4.4-9.9-9.9v0
	C208.4,538.8,212.8,534.4,218.3,534.4z"/>
<path class="st6" d="M217.2,488.1h18c5.5,0,9.9,4.4,9.9,9.9v0c0,5.5-4.4,9.9-9.9,9.9h-18c-5.5,0-9.9-4.4-9.9-9.9v0
	C207.3,492.5,211.7,488.1,217.2,488.1z"/>
<path class="st6" d="M423.3,488.1h18c5.5,0,9.9,4.4,9.9,9.9v0c0,5.5-4.4,9.9-9.9,9.9h-18c-5.5,0-9.9-4.4-9.9-9.9v0
	C413.4,492.5,417.9,488.1,423.3,488.1z"/>
<path class="st6" d="M481.8,488.1h18c5.5,0,9.9,4.4,9.9,9.9v0c0,5.5-4.4,9.9-9.9,9.9h-18c-5.5,0-9.9-4.4-9.9-9.9v0
	C471.9,492.5,476.3,488.1,481.8,488.1z"/>
<path class="st6" d="M273.2,489.7h112c5.5,0,9.9,4.4,9.9,9.9v0c0,5.5-4.4,9.9-9.9,9.9h-112c-5.5,0-9.9-4.4-9.9-9.9v0
	C263.3,494.1,267.8,489.7,273.2,489.7z"/>
<path class="st6" d="M282.6,433.5h18c5.5,0,9.9,4.4,9.9,9.9v0c0,5.5-4.4,9.9-9.9,9.9h-18c-5.5,0-9.9-4.4-9.9-9.9v0
	C272.7,437.9,277.1,433.5,282.6,433.5z"/>
<path class="st6" d="M478.3,443.4h18c5.5,0,9.9,4.4,9.9,9.9v0c0,5.5-4.4,9.9-9.9,9.9h-18c-5.5,0-9.9-4.4-9.9-9.9v0
	C468.4,447.8,472.9,443.4,478.3,443.4z"/>
<path class="st6" d="M536.7,443.4h18c5.5,0,9.9,4.4,9.9,9.9v0c0,5.5-4.4,9.9-9.9,9.9h-18c-5.5,0-9.9-4.4-9.9-9.9v0
	C526.8,447.8,531.3,443.4,536.7,443.4z"/>
<path class="st6" d="M328.2,445h112c5.5,0,9.9,4.4,9.9,9.9v0c0,5.5-4.4,9.9-9.9,9.9h-112c-5.5,0-9.9-4.4-9.9-9.9v0
	C318.3,449.5,322.8,445,328.2,445z"/>
<path class="st6" d="M327.1,398.7h18c5.5,0,9.9,4.4,9.9,9.9v0c0,5.5-4.4,9.9-9.9,9.9h-18c-5.5,0-9.9-4.4-9.9-9.9v0
	C317.2,403.2,321.7,398.7,327.1,398.7z"/>
<path class="st6" d="M533.3,398.7h18c5.5,0,9.9,4.4,9.9,9.9v0c0,5.5-4.4,9.9-9.9,9.9h-18c-5.5,0-9.9-4.4-9.9-9.9v0
	C523.4,403.2,527.8,398.7,533.3,398.7z"/>
<path class="st6" d="M383.2,400.4h112c5.5,0,9.9,4.4,9.9,9.9v0c0,5.5-4.4,9.9-9.9,9.9h-112c-5.5,0-9.9-4.4-9.9-9.9v0
	C373.3,404.8,377.7,400.4,383.2,400.4z"/>
</svg>
