<svg width="406" height="306" viewBox="0 0 406 306" fill="none" xmlns="http://www.w3.org/2000/svg">
<path d="M223.584 165.383H241.265C247.926 165.394 254.407 167.539 259.759 171.503C265.111 175.467 269.053 181.041 271.005 187.408L280.556 218.559C280.899 219.671 280.976 220.849 280.781 221.997C280.587 223.145 280.125 224.231 279.434 225.168C278.743 226.105 277.841 226.866 276.802 227.391C275.763 227.917 274.615 228.19 273.451 228.191H191.338C190.173 228.19 189.026 227.917 187.986 227.391C186.947 226.866 186.046 226.105 185.355 225.168C184.664 224.231 184.202 223.145 184.007 221.997C183.812 220.849 183.89 219.671 184.233 218.559L193.784 187.408C195.739 181.031 199.69 175.449 205.054 171.485C210.419 167.52 216.914 165.381 223.584 165.383Z" fill="#405CD5"/>
<path d="M273.482 229.206H191.368C190.042 229.21 188.734 228.903 187.549 228.309C186.364 227.715 185.335 226.85 184.545 225.786C183.755 224.721 183.226 223.486 183.001 222.18C182.776 220.873 182.86 219.532 183.248 218.265L192.85 187.114C194.845 180.517 198.915 174.741 204.456 170.643C209.997 166.544 216.713 164.344 223.604 164.368H241.265C248.157 164.344 254.873 166.544 260.414 170.643C265.955 174.741 270.025 180.517 272.02 187.114L281.571 218.265C281.959 219.532 282.044 220.873 281.818 222.18C281.593 223.486 281.064 224.721 280.274 225.786C279.484 226.85 278.455 227.715 277.27 228.309C276.085 228.903 274.777 229.21 273.451 229.206H273.482ZM223.584 166.398C217.126 166.375 210.834 168.437 205.642 172.278C200.45 176.118 196.637 181.531 194.768 187.713L185.217 218.863C184.924 219.826 184.86 220.843 185.031 221.834C185.202 222.825 185.602 223.763 186.199 224.572C186.797 225.381 187.576 226.038 188.474 226.492C189.371 226.946 190.362 227.184 191.368 227.186H273.482C274.487 227.184 275.479 226.946 276.376 226.492C277.274 226.038 278.052 225.381 278.65 224.572C279.248 223.763 279.648 222.825 279.819 221.834C279.989 220.843 279.926 219.826 279.632 218.863L270.081 187.713C268.213 181.531 264.399 176.118 259.208 172.278C254.016 168.437 247.723 166.375 241.265 166.398H223.584Z" fill="#093F68"/>
<path d="M227.025 161.871H237.825V168.083C237.825 168.685 237.706 169.282 237.475 169.839C237.245 170.395 236.907 170.901 236.481 171.327C236.055 171.753 235.549 172.091 234.993 172.321C234.436 172.552 233.839 172.671 233.237 172.671H231.603C230.386 172.671 229.219 172.187 228.359 171.327C227.498 170.467 227.015 169.3 227.015 168.083V161.871H227.025Z" fill="#FFC9B0"/>
<path d="M233.237 173.676H231.613C230.129 173.676 228.705 173.087 227.655 172.038C226.604 170.99 226.013 169.567 226.01 168.083V161.871C226.01 161.602 226.117 161.344 226.307 161.153C226.498 160.963 226.756 160.856 227.025 160.856H237.825C238.094 160.856 238.352 160.963 238.542 161.153C238.733 161.344 238.84 161.602 238.84 161.871V168.083C238.837 169.567 238.245 170.99 237.195 172.038C236.145 173.087 234.721 173.676 233.237 173.676ZM228.04 162.886V168.083C228.043 169.029 228.42 169.935 229.09 170.603C229.76 171.271 230.667 171.646 231.613 171.646H233.237C234.183 171.646 235.09 171.271 235.76 170.603C236.429 169.935 236.807 169.029 236.81 168.083V162.886H228.04Z" fill="#093F68"/>
<path d="M195.154 131.918C190.14 130.02 190.444 126.184 189.693 121.271C188.941 116.404 188.477 111.496 188.303 106.574C188.11 100.981 188.303 95.2364 190.434 90.0497C193.165 83.3812 198.554 79.0776 205.751 79.6663C205.538 69.8411 211.435 60.6248 221.879 60.0666C238.616 59.1734 248.269 77.149 257.617 75.8092C266.965 74.4694 269.472 70.3079 269.472 70.3079C271.043 73.3141 271.688 76.718 271.327 80.0904C270.966 83.4628 269.614 86.6528 267.442 89.258C267.442 89.258 274.821 87.1062 275.715 96.9213C276.608 106.736 270.731 132.822 270.731 132.822L264.062 131.685C261.251 131.188 257.739 131.878 254.927 131.969L234.008 132.619C223.513 132.913 206.542 136.222 195.154 131.918Z" fill="black"/>
<path d="M210.237 135.116C204.736 135.116 199.326 134.578 194.789 132.862C189.927 131.015 189.48 127.503 188.963 123.433C188.881 122.756 188.79 122.08 188.688 121.403C187.932 116.495 187.464 111.547 187.288 106.584C187.105 101.336 187.227 95.2059 189.5 89.6538C192.393 82.5488 197.793 78.5802 204.421 78.5802H204.736C204.959 69.1306 210.755 59.62 221.828 59.0313C231.562 58.5238 239.083 64.1977 245.092 68.755C249.741 72.2771 253.76 75.3119 257.465 74.7841C266.143 73.5458 268.63 69.8005 268.63 69.7599C268.722 69.6121 268.851 69.4906 269.004 69.4071C269.157 69.3235 269.329 69.2807 269.503 69.2828C269.679 69.2828 269.852 69.3287 270.005 69.4159C270.158 69.5031 270.286 69.6286 270.376 69.7802C270.426 69.8715 275.512 78.834 269.604 88.0502C270.865 88.1071 272.086 88.5072 273.136 89.2073C275.166 90.6283 276.435 93.1861 276.76 96.8299C277.663 106.696 272.01 131.969 271.766 133.045C271.708 133.299 271.554 133.52 271.337 133.664C271.12 133.808 270.855 133.862 270.599 133.817L263.9 132.7C261.918 132.48 259.917 132.507 257.942 132.781C256.927 132.883 255.912 132.974 254.897 133.005L233.978 133.654C231.369 133.735 228.304 134.009 225.066 134.294C220.488 134.659 215.322 135.116 210.237 135.116ZM195.509 130.964C203.812 134.111 215.515 133.065 224.944 132.223C228.213 131.929 231.308 131.655 233.978 131.573L254.897 130.924C255.78 130.924 256.744 130.802 257.759 130.711C259.913 130.412 262.096 130.392 264.255 130.65C264.61 130.65 265.768 130.903 269.99 131.665C271.005 126.914 275.512 105.528 274.74 97.0227C274.466 93.9777 273.553 91.9478 272.01 90.9328C271.383 90.5444 270.685 90.2851 269.956 90.1701C269.228 90.055 268.483 90.0866 267.767 90.2629C267.56 90.3224 267.338 90.3142 267.136 90.2393C266.933 90.1645 266.76 90.0269 266.641 89.8467C266.522 89.6665 266.464 89.4532 266.475 89.2379C266.486 89.0226 266.565 88.8163 266.701 88.649C268.604 86.4028 269.847 83.6743 270.295 80.7651C270.743 77.856 270.377 74.8797 269.239 72.1654C267.686 73.627 264.306 75.9108 257.78 76.8446C253.232 77.484 248.898 74.2157 243.884 70.4298C237.794 65.8318 230.943 60.635 221.96 61.1121C211.749 61.65 206.593 70.8662 206.786 79.6764C206.788 79.819 206.761 79.9605 206.705 80.0916C206.649 80.2228 206.566 80.3407 206.461 80.4377C206.357 80.5357 206.234 80.6108 206.1 80.658C205.965 80.7052 205.822 80.7235 205.68 80.7117C199.346 80.1839 194.139 83.7567 191.399 90.4659C189.277 95.6728 189.166 101.529 189.369 106.564C189.54 111.445 189.997 116.312 190.739 121.139C190.85 121.86 190.942 122.54 191.023 123.169C191.51 127.006 191.835 129.543 195.56 130.954L195.509 130.964Z" fill="#093F68"/>
<path d="M201.569 142.86C207.36 142.86 212.054 138.816 212.054 133.827C212.054 128.838 207.36 124.793 201.569 124.793C195.778 124.793 191.084 128.838 191.084 133.827C191.084 138.816 195.778 142.86 201.569 142.86Z" fill="#FFC9B0"/>
<path d="M201.569 143.865C195.225 143.865 190.069 139.358 190.069 133.817C190.069 128.275 195.225 123.758 201.569 123.758C207.913 123.758 213.079 128.275 213.079 133.817C213.079 139.358 207.913 143.865 201.569 143.865ZM201.569 125.788C196.352 125.788 192.099 129.391 192.099 133.817C192.099 138.242 196.352 141.835 201.569 141.835C206.786 141.835 211.049 138.242 211.049 133.817C211.049 129.391 206.796 125.798 201.569 125.798V125.788Z" fill="#093F68"/>
<path d="M262.723 142.86C268.513 142.86 273.208 138.816 273.208 133.827C273.208 128.838 268.513 124.793 262.723 124.793C256.932 124.793 252.238 128.838 252.238 133.827C252.238 138.816 256.932 142.86 262.723 142.86Z" fill="#FFC9B0"/>
<path d="M262.723 143.865C256.379 143.865 251.212 139.358 251.212 133.817C251.212 128.275 256.379 123.758 262.723 123.758C269.066 123.758 274.223 128.275 274.223 133.817C274.223 139.358 269.066 143.865 262.723 143.865ZM262.723 125.788C257.495 125.788 253.242 129.391 253.242 133.817C253.242 138.242 257.495 141.835 262.723 141.835C267.95 141.835 272.193 138.242 272.193 133.817C272.193 129.391 267.96 125.798 262.723 125.798V125.788Z" fill="#093F68"/>
<path d="M232.435 163.282C224.049 163.285 216.006 159.958 210.072 154.033C204.137 148.109 200.798 140.071 200.787 131.685V108.685C202.635 111.73 208.775 110.512 217.778 95.074C251.476 112.146 264.062 102.362 264.062 102.362V131.685C264.052 140.067 260.715 148.102 254.785 154.026C248.855 159.95 240.817 163.279 232.435 163.282Z" fill="#FFC9B0"/>
<path d="M232.435 164.297C223.783 164.292 215.486 160.856 209.363 154.742C203.24 148.629 199.791 140.337 199.772 131.685V108.685C199.77 108.462 199.842 108.244 199.976 108.066C200.11 107.887 200.299 107.758 200.514 107.698C200.729 107.638 200.958 107.65 201.165 107.733C201.372 107.816 201.546 107.965 201.66 108.157C201.816 108.428 202.043 108.65 202.317 108.798C202.592 108.947 202.902 109.017 203.213 109C204.451 109 209.1 107.914 216.885 94.5563C217.01 94.326 217.22 94.1531 217.469 94.0736C217.719 93.9941 217.99 94.0144 218.225 94.13C250.786 110.624 263.311 101.611 263.433 101.519C263.584 101.403 263.764 101.332 263.953 101.313C264.143 101.295 264.334 101.33 264.504 101.414C264.674 101.499 264.817 101.63 264.917 101.792C265.017 101.954 265.069 102.141 265.067 102.331V131.685C265.048 140.332 261.604 148.619 255.488 154.732C249.371 160.844 241.082 164.284 232.435 164.297ZM201.812 110.786V131.685C201.812 139.807 205.039 147.596 210.782 153.338C216.524 159.081 224.313 162.308 232.435 162.308C240.557 162.308 248.346 159.081 254.088 153.338C259.831 147.596 263.058 139.807 263.058 131.685V104.107C258.673 106.137 245.204 109.873 218.184 96.4036C212.582 105.813 207.293 110.999 203.264 111.03C202.765 111.054 202.266 110.971 201.802 110.786H201.812Z" fill="#093F68"/>
<path d="M252.735 220.721C252.466 220.721 252.208 220.614 252.017 220.424C251.827 220.233 251.72 219.975 251.72 219.706V182.577C251.72 182.308 251.827 182.05 252.017 181.859C252.208 181.669 252.466 181.562 252.735 181.562C253.004 181.562 253.262 181.669 253.453 181.859C253.643 182.05 253.75 182.308 253.75 182.577V219.706C253.75 219.975 253.643 220.233 253.453 220.424C253.262 220.614 253.004 220.721 252.735 220.721Z" fill="#093F68"/>
<path d="M212.135 220.721C211.866 220.721 211.608 220.614 211.417 220.424C211.227 220.233 211.12 219.975 211.12 219.706V182.577C211.12 182.308 211.227 182.05 211.417 181.859C211.608 181.669 211.866 181.562 212.135 181.562C212.404 181.562 212.662 181.669 212.853 181.859C213.043 182.05 213.15 182.308 213.15 182.577V219.706C213.15 219.975 213.043 220.233 212.853 220.424C212.662 220.614 212.404 220.721 212.135 220.721Z" fill="#093F68"/>
<path d="M232.354 137.46C231.29 137.453 230.228 137.365 229.177 137.196C228.908 137.149 228.668 136.997 228.511 136.774C228.354 136.55 228.292 136.273 228.339 136.004C228.387 135.735 228.539 135.495 228.762 135.338C228.986 135.181 229.263 135.119 229.532 135.166C231.129 135.418 232.756 135.418 234.353 135.166C234.556 134.233 233.338 130.751 231.613 127.473C231.553 127.352 231.518 127.22 231.51 127.085C231.502 126.951 231.521 126.816 231.565 126.689C231.61 126.561 231.68 126.444 231.77 126.344C231.86 126.244 231.97 126.163 232.092 126.105C232.214 126.048 232.346 126.016 232.481 126.01C232.616 126.004 232.75 126.026 232.877 126.073C233.003 126.12 233.119 126.191 233.218 126.284C233.316 126.376 233.395 126.487 233.45 126.61C234.587 128.792 237.134 134.091 236.201 136.171C236.096 136.42 235.935 136.641 235.731 136.817C235.527 136.993 235.285 137.12 235.023 137.186C234.148 137.387 233.252 137.479 232.354 137.46Z" fill="#093F68"/>
<path d="M225.33 113.141H209.821C209.282 113.141 208.766 112.927 208.385 112.546C208.005 112.166 207.791 111.649 207.791 111.111C207.791 110.573 208.005 110.056 208.385 109.676C208.766 109.295 209.282 109.081 209.821 109.081H225.34C225.879 109.081 226.395 109.295 226.776 109.676C227.156 110.056 227.37 110.573 227.37 111.111C227.37 111.649 227.156 112.166 226.776 112.546C226.395 112.927 225.879 113.141 225.34 113.141H225.33Z" fill="#093F68"/>
<path d="M254.004 113.141H238.495C237.956 113.141 237.44 112.927 237.059 112.546C236.678 112.166 236.465 111.649 236.465 111.111C236.465 110.573 236.678 110.056 237.059 109.676C237.44 109.295 237.956 109.081 238.495 109.081H254.004C254.542 109.081 255.058 109.295 255.439 109.676C255.82 110.056 256.034 110.573 256.034 111.111C256.034 111.649 255.82 112.166 255.439 112.546C255.058 112.927 254.542 113.141 254.004 113.141Z" fill="#093F68"/>
<path d="M208.471 118.703H226.741C227.43 118.703 228.091 118.977 228.578 119.464C229.065 119.951 229.339 120.612 229.339 121.302V122.997C229.339 125.32 228.416 127.548 226.774 129.19C225.131 130.833 222.903 131.756 220.58 131.756H214.622C212.299 131.756 210.071 130.833 208.428 129.19C206.785 127.548 205.862 125.32 205.862 122.997V121.302C205.862 120.959 205.93 120.621 206.061 120.305C206.192 119.989 206.385 119.702 206.627 119.461C206.869 119.219 207.157 119.028 207.473 118.898C207.79 118.768 208.129 118.702 208.471 118.703Z" fill="white"/>
<path d="M220.59 132.781H214.642C212.051 132.779 209.566 131.748 207.733 129.915C205.901 128.083 204.87 125.598 204.868 123.007V121.302C204.868 120.345 205.247 119.427 205.922 118.75C206.598 118.073 207.514 117.691 208.471 117.688H226.741C227.698 117.691 228.616 118.072 229.293 118.749C229.97 119.427 230.352 120.344 230.354 121.302V123.007C230.352 125.597 229.322 128.08 227.492 129.912C225.662 131.744 223.18 132.776 220.59 132.781ZM208.471 119.718C208.263 119.718 208.058 119.759 207.866 119.839C207.675 119.919 207.501 120.035 207.355 120.183C207.209 120.33 207.093 120.504 207.014 120.696C206.936 120.888 206.896 121.094 206.898 121.302V123.007C206.9 125.06 207.717 127.028 209.169 128.48C210.621 129.932 212.589 130.749 214.642 130.751H220.59C222.644 130.749 224.613 129.932 226.067 128.481C227.52 127.029 228.339 125.061 228.345 123.007V121.302C228.345 120.882 228.178 120.479 227.881 120.182C227.584 119.885 227.181 119.718 226.761 119.718H208.471Z" fill="#093F68"/>
<path d="M237.967 118.703H256.237C256.926 118.703 257.587 118.977 258.074 119.464C258.561 119.951 258.835 120.612 258.835 121.302V122.997C258.835 125.32 257.912 127.548 256.27 129.19C254.627 130.833 252.399 131.756 250.076 131.756H244.118C241.794 131.756 239.566 130.833 237.924 129.19C236.281 127.548 235.358 125.32 235.358 122.997V121.302C235.358 120.959 235.426 120.621 235.557 120.305C235.688 119.989 235.88 119.702 236.123 119.461C236.365 119.219 236.653 119.028 236.969 118.898C237.286 118.768 237.625 118.702 237.967 118.703Z" fill="white"/>
<path d="M250.086 132.781H244.138C241.545 132.781 239.057 131.752 237.223 129.919C235.388 128.086 234.356 125.6 234.353 123.007V121.302C234.356 120.344 234.738 119.427 235.415 118.749C236.092 118.072 237.009 117.691 237.967 117.688H256.237C257.193 117.691 258.11 118.073 258.785 118.75C259.461 119.427 259.84 120.345 259.84 121.302V123.007C259.837 125.595 258.809 128.076 256.981 129.908C255.153 131.74 252.674 132.773 250.086 132.781ZM237.967 119.718C237.547 119.718 237.144 119.885 236.847 120.182C236.55 120.479 236.383 120.882 236.383 121.302V123.007C236.389 125.061 237.208 127.029 238.661 128.481C240.115 129.932 242.084 130.749 244.138 130.751H250.086C252.139 130.749 254.107 129.932 255.559 128.48C257.011 127.028 257.828 125.06 257.83 123.007V121.302C257.832 121.094 257.792 120.888 257.713 120.696C257.635 120.504 257.519 120.33 257.373 120.183C257.227 120.035 257.053 119.919 256.861 119.839C256.67 119.759 256.465 119.718 256.257 119.718H237.967Z" fill="#093F68"/>
<path d="M205.883 124.022H199.955C199.686 124.022 199.428 123.915 199.237 123.724C199.047 123.534 198.94 123.276 198.94 123.007C198.94 122.738 199.047 122.479 199.237 122.289C199.428 122.099 199.686 121.992 199.955 121.992H205.852C206.121 121.992 206.38 122.099 206.57 122.289C206.76 122.479 206.867 122.738 206.867 123.007C206.867 123.276 206.76 123.534 206.57 123.724C206.38 123.915 206.121 124.022 205.852 124.022H205.883Z" fill="#093F68"/>
<path d="M265.037 124.022H259.15C258.881 124.022 258.622 123.915 258.432 123.724C258.242 123.534 258.135 123.276 258.135 123.007C258.135 122.738 258.242 122.479 258.432 122.289C258.622 122.099 258.881 121.992 259.15 121.992H265.037C265.306 121.992 265.564 122.099 265.755 122.289C265.945 122.479 266.052 122.738 266.052 123.007C266.052 123.276 265.945 123.534 265.755 123.724C265.564 123.915 265.306 124.022 265.037 124.022Z" fill="#093F68"/>
<path d="M235.368 124.022H229.39C229.121 124.022 228.863 123.915 228.672 123.724C228.482 123.534 228.375 123.276 228.375 123.007C228.375 122.738 228.482 122.479 228.672 122.289C228.863 122.099 229.121 121.992 229.39 121.992H235.399C235.668 121.992 235.926 122.099 236.117 122.289C236.307 122.479 236.414 122.738 236.414 123.007C236.414 123.276 236.307 123.534 236.117 123.724C235.926 123.915 235.668 124.022 235.399 124.022H235.368Z" fill="#093F68"/>
<path d="M231.755 147.245C228.133 147.259 224.54 146.602 221.158 145.306C220.907 145.209 220.704 145.016 220.594 144.77C220.485 144.523 220.478 144.244 220.575 143.992C220.672 143.74 220.865 143.537 221.111 143.428C221.358 143.318 221.637 143.311 221.889 143.408C228.375 145.739 235.47 145.739 241.956 143.408C242.079 143.357 242.211 143.33 242.345 143.33C242.478 143.33 242.611 143.356 242.734 143.407C242.858 143.458 242.97 143.533 243.064 143.627C243.159 143.721 243.234 143.833 243.285 143.956C243.337 144.08 243.363 144.212 243.363 144.345C243.364 144.479 243.338 144.611 243.287 144.735C243.236 144.858 243.161 144.97 243.067 145.065C242.973 145.16 242.861 145.235 242.737 145.286C239.225 146.597 235.504 147.261 231.755 147.245Z" fill="#093F68"/>
<path d="M260.256 212.195C260.019 212.2 259.787 212.121 259.602 211.973C259.416 211.824 259.289 211.616 259.241 211.383C259.214 211.252 259.214 211.118 259.239 210.987C259.264 210.856 259.315 210.731 259.389 210.62C259.462 210.509 259.557 210.413 259.668 210.338C259.778 210.264 259.902 210.212 260.033 210.185L271.259 207.891C271.528 207.837 271.808 207.893 272.036 208.045C272.264 208.197 272.423 208.434 272.477 208.703C272.531 208.972 272.475 209.252 272.323 209.48C272.171 209.709 271.934 209.867 271.665 209.921L260.439 212.205C260.378 212.21 260.316 212.207 260.256 212.195Z" fill="#093F68"/>
<path d="M204.594 212.195C204.526 212.205 204.458 212.205 204.391 212.195L193.165 209.84C193.031 209.813 192.905 209.761 192.792 209.685C192.679 209.609 192.582 209.512 192.506 209.399C192.431 209.286 192.379 209.159 192.352 209.026C192.326 208.893 192.326 208.755 192.353 208.622C192.379 208.489 192.432 208.362 192.508 208.249C192.583 208.136 192.68 208.039 192.793 207.964C192.907 207.888 193.033 207.836 193.167 207.81C193.3 207.783 193.437 207.783 193.571 207.81L204.797 210.104C204.927 210.131 205.051 210.183 205.162 210.257C205.272 210.332 205.367 210.428 205.441 210.539C205.514 210.65 205.565 210.775 205.59 210.905C205.616 211.036 205.615 211.171 205.588 211.302C205.559 211.546 205.442 211.771 205.259 211.935C205.076 212.099 204.839 212.192 204.594 212.195Z" fill="#093F68"/>
<path d="M203.771 190.92H260.957C262.243 190.92 263.477 191.432 264.387 192.341C265.297 193.251 265.808 194.485 265.808 195.772V229.125H198.94V195.772C198.94 194.489 199.448 193.258 200.354 192.349C201.259 191.439 202.488 190.926 203.771 190.92Z" fill="#E8E5E4"/>
<path d="M265.808 230.14H198.94C198.671 230.14 198.413 230.033 198.222 229.843C198.032 229.652 197.925 229.394 197.925 229.125V195.772C197.925 194.216 198.543 192.724 199.643 191.624C200.744 190.523 202.236 189.905 203.792 189.905H260.957C262.512 189.905 264.005 190.523 265.105 191.624C266.205 192.724 266.823 194.216 266.823 195.772V229.125C266.823 229.394 266.716 229.652 266.526 229.843C266.336 230.033 266.077 230.14 265.808 230.14ZM199.955 228.11H264.813V195.772C264.811 194.755 264.406 193.781 263.687 193.062C262.968 192.343 261.994 191.938 260.977 191.935H203.771C202.755 191.938 201.78 192.343 201.061 193.062C200.342 193.781 199.937 194.755 199.935 195.772L199.955 228.11Z" fill="#093F68"/>
<path d="M195.672 229.125H269.066C269.066 230.423 268.551 231.667 267.633 232.584C266.716 233.502 265.472 234.017 264.174 234.017H200.564C199.266 234.017 198.022 233.502 197.105 232.584C196.187 231.667 195.672 230.423 195.672 229.125Z" fill="#E8E5E4"/>
<path d="M264.164 235.053H200.564C198.998 235.05 197.497 234.427 196.39 233.319C195.283 232.212 194.659 230.711 194.657 229.145C194.657 228.876 194.764 228.618 194.954 228.428C195.144 228.237 195.402 228.13 195.672 228.13H269.056C269.325 228.13 269.584 228.237 269.774 228.428C269.964 228.618 270.071 228.876 270.071 229.145C270.068 230.711 269.445 232.212 268.338 233.319C267.231 234.427 265.73 235.05 264.164 235.053ZM196.819 230.14C197.043 230.961 197.531 231.686 198.208 232.204C198.885 232.721 199.712 233.001 200.564 233.002H264.164C265.024 233.013 265.864 232.737 266.55 232.219C267.237 231.701 267.733 230.97 267.96 230.14H196.819Z" fill="black"/>
<path d="M231.613 191.935C231.344 191.935 231.085 191.828 230.895 191.638C230.705 191.448 230.598 191.19 230.598 190.92V172.65C230.598 172.381 230.705 172.123 230.895 171.933C231.085 171.742 231.344 171.635 231.613 171.635C231.882 171.635 232.14 171.742 232.331 171.933C232.521 172.123 232.628 172.381 232.628 172.65V190.92C232.628 191.19 232.521 191.448 232.331 191.638C232.14 191.828 231.882 191.935 231.613 191.935Z" fill="#093F68"/>
<path d="M135.36 204.674H163.78V224.71C163.78 227.184 162.798 229.556 161.048 231.306C159.299 233.055 156.926 234.038 154.453 234.038H144.688C142.214 234.038 139.842 233.055 138.092 231.306C136.343 229.556 135.36 227.184 135.36 224.71V204.674Z" fill="#FFBC0E"/>
<path d="M154.453 235.053H144.688C141.946 235.05 139.317 233.959 137.378 232.02C135.439 230.081 134.348 227.452 134.345 224.71V204.674C134.345 204.404 134.452 204.146 134.643 203.956C134.833 203.766 135.091 203.659 135.36 203.659H163.78C164.05 203.659 164.308 203.766 164.498 203.956C164.688 204.146 164.795 204.404 164.795 204.674V224.71C164.793 227.452 163.702 230.081 161.763 232.02C159.824 233.959 157.195 235.05 154.453 235.053ZM136.375 205.689V224.71C136.375 226.914 137.251 229.029 138.81 230.588C140.369 232.147 142.484 233.023 144.688 233.023H154.453C156.656 233.02 158.769 232.143 160.328 230.585C161.886 229.026 162.763 226.914 162.765 224.71V205.689H136.375Z" fill="#093F68"/>
<path d="M287.864 234.038H118.136C114.84 234.038 112.168 236.707 112.168 240.001C112.168 243.294 114.84 245.964 118.136 245.964H287.864C291.16 245.964 293.832 243.294 293.832 240.001C293.832 236.707 291.16 234.038 287.864 234.038Z" fill="#725858"/>
<path d="M287.864 246.979H118.136C117.197 247.015 116.261 246.861 115.383 246.526C114.505 246.192 113.704 245.683 113.027 245.032C112.35 244.38 111.812 243.599 111.444 242.734C111.076 241.87 110.886 240.94 110.886 240.001C110.886 239.061 111.076 238.131 111.444 237.267C111.812 236.403 112.35 235.621 113.027 234.97C113.704 234.318 114.505 233.81 115.383 233.475C116.261 233.141 117.197 232.987 118.136 233.023H287.864C288.803 232.987 289.739 233.141 290.617 233.475C291.495 233.81 292.296 234.318 292.973 234.97C293.65 235.621 294.188 236.403 294.556 237.267C294.924 238.131 295.114 239.061 295.114 240.001C295.114 240.94 294.924 241.87 294.556 242.734C294.188 243.599 293.65 244.38 292.973 245.032C292.296 245.683 291.495 246.192 290.617 246.526C289.739 246.861 288.803 247.015 287.864 246.979ZM118.136 235.053C117.467 235.022 116.799 235.128 116.173 235.363C115.546 235.598 114.973 235.957 114.489 236.42C114.006 236.882 113.62 237.438 113.357 238.054C113.094 238.669 112.958 239.331 112.958 240.001C112.958 240.67 113.094 241.332 113.357 241.948C113.62 242.563 114.006 243.119 114.489 243.582C114.973 244.044 115.546 244.404 116.173 244.639C116.799 244.874 117.467 244.979 118.136 244.949H287.864C288.533 244.979 289.201 244.874 289.827 244.639C290.454 244.404 291.027 244.044 291.511 243.582C291.994 243.119 292.38 242.563 292.643 241.948C292.906 241.332 293.042 240.67 293.042 240.001C293.042 239.331 292.906 238.669 292.643 238.054C292.38 237.438 291.994 236.882 291.511 236.42C291.027 235.957 290.454 235.598 289.827 235.363C289.201 235.128 288.533 235.022 287.864 235.053H118.136Z" fill="#093F68"/>
<path d="M165.445 225.065H163.791C163.521 225.065 163.263 224.958 163.073 224.768C162.882 224.577 162.776 224.319 162.776 224.05V207.942C162.776 207.673 162.882 207.415 163.073 207.224C163.263 207.034 163.521 206.927 163.791 206.927H165.445C166.728 206.772 168.029 206.891 169.262 207.276C170.496 207.661 171.634 208.303 172.6 209.16C173.567 210.017 174.342 211.07 174.872 212.248C175.402 213.426 175.676 214.704 175.676 215.996C175.676 217.288 175.402 218.566 174.872 219.744C174.342 220.922 173.567 221.975 172.6 222.832C171.634 223.689 170.496 224.331 169.262 224.716C168.029 225.101 166.728 225.22 165.445 225.065ZM164.806 223.035H165.445C166.439 223.148 167.447 223.05 168.401 222.747C169.355 222.444 170.234 221.943 170.98 221.276C171.727 220.61 172.325 219.793 172.734 218.88C173.143 217.966 173.354 216.977 173.354 215.976C173.354 214.975 173.143 213.985 172.734 213.072C172.325 212.158 171.727 211.341 170.98 210.675C170.234 210.008 169.355 209.507 168.401 209.204C167.447 208.901 166.439 208.803 165.445 208.916H164.806V223.035Z" fill="#093F68"/>
<path d="M177.625 115.425H117.456C116.054 115.425 114.918 116.561 114.918 117.962V167.768C114.918 169.17 116.054 170.306 117.456 170.306H177.625C179.026 170.306 180.162 169.17 180.162 167.768V117.962C180.162 116.561 179.026 115.425 177.625 115.425Z" fill="white"/>
<path d="M177.625 171.321H117.446C116.505 171.318 115.604 170.943 114.94 170.277C114.276 169.611 113.903 168.709 113.903 167.768V117.952C113.903 117.013 114.277 116.112 114.941 115.447C115.605 114.783 116.506 114.41 117.446 114.41H177.625C178.565 114.41 179.467 114.783 180.133 115.447C180.799 116.111 181.175 117.012 181.178 117.952V167.768C181.178 168.71 180.803 169.614 180.137 170.28C179.471 170.946 178.567 171.321 177.625 171.321ZM117.446 116.46C117.045 116.46 116.66 116.619 116.376 116.903C116.093 117.187 115.933 117.571 115.933 117.972V167.789C115.933 168.191 116.092 168.576 116.376 168.862C116.659 169.147 117.044 169.308 117.446 169.311H177.625C178.029 169.311 178.416 169.151 178.702 168.865C178.987 168.58 179.148 168.192 179.148 167.789V117.952C179.14 117.554 178.976 117.174 178.691 116.895C178.406 116.616 178.024 116.46 177.625 116.46H117.446Z" fill="#093F68"/>
<path d="M117.446 115.445H177.625C178.298 115.445 178.943 115.712 179.419 116.188C179.895 116.664 180.163 117.31 180.163 117.982V122.377H114.918V117.982C114.918 117.311 115.184 116.667 115.658 116.192C116.132 115.716 116.774 115.448 117.446 115.445Z" fill="#68E1FD"/>
<path d="M180.163 123.372H114.918C114.649 123.372 114.391 123.265 114.201 123.075C114.01 122.885 113.903 122.626 113.903 122.357V117.952C113.903 117.013 114.277 116.112 114.941 115.447C115.605 114.783 116.506 114.41 117.446 114.41H177.625C178.565 114.41 179.467 114.783 180.133 115.447C180.799 116.111 181.175 117.012 181.178 117.952V122.357C181.178 122.626 181.071 122.885 180.88 123.075C180.69 123.265 180.432 123.372 180.163 123.372ZM115.933 121.342H179.148V117.952C179.14 117.554 178.976 117.174 178.691 116.895C178.406 116.616 178.024 116.46 177.625 116.46H117.446C117.045 116.46 116.66 116.619 116.376 116.903C116.093 117.187 115.933 117.571 115.933 117.972V121.342Z" fill="#093F68"/>
<path d="M119.983 120.246C120.734 120.246 121.343 119.637 121.343 118.886C121.343 118.135 120.734 117.526 119.983 117.526C119.232 117.526 118.623 118.135 118.623 118.886C118.623 119.637 119.232 120.246 119.983 120.246Z" fill="#093F68"/>
<path d="M123.789 120.246C124.541 120.246 125.15 119.637 125.15 118.886C125.15 118.135 124.541 117.526 123.789 117.526C123.038 117.526 122.429 118.135 122.429 118.886C122.429 119.637 123.038 120.246 123.789 120.246Z" fill="#093F68"/>
<path d="M127.606 120.246C128.357 120.246 128.966 119.637 128.966 118.886C128.966 118.135 128.357 117.526 127.606 117.526C126.855 117.526 126.246 118.135 126.246 118.886C126.246 119.637 126.855 120.246 127.606 120.246Z" fill="#093F68"/>
<path d="M139.146 141.48L129.758 145.763V145.834L139.146 150.117V154.807L124.155 147.976V143.621L139.146 136.76V141.48Z" fill="#093F68"/>
<path d="M150.281 129.99L153.651 131.198L144.769 158.075L141.42 156.867L150.281 129.99Z" fill="#093F68"/>
<path d="M155.934 150.117L165.323 145.834V145.763L155.934 141.48V136.76L170.916 143.591V147.945L155.934 154.776V150.117Z" fill="#093F68"/>
</svg>
